<svg width="32" height="33" viewBox="0 0 32 33" fill="none" xmlns="http://www.w3.org/2000/svg">
<g clip-path="url(#clip0_2096_1496)">
<path d="M16 32.5C24.8366 32.5 32 25.3366 32 16.5C32 7.66344 24.8366 0.5 16 0.5C7.16344 0.5 0 7.66344 0 16.5C0 25.3366 7.16344 32.5 16 32.5Z" fill="#F0F0F0"/>
<path d="M15.3039 16.5H31.9995C31.9995 15.0559 31.807 13.6569 31.4484 12.326H15.3039V16.5Z" fill="#D80027"/>
<path d="M15.3039 8.15135H29.6512C28.6717 6.5531 27.4194 5.14042 25.9593 3.97742H15.3039V8.15135Z" fill="#D80027"/>
<path d="M15.9996 32.5C19.7652 32.5 23.2262 31.1985 25.9594 29.0217H6.03986C8.77298 31.1985 12.234 32.5 15.9996 32.5Z" fill="#D80027"/>
<path d="M2.34806 24.8465H29.6513C30.4376 23.5635 31.0474 22.161 31.4485 20.6726H0.550873C0.951935 22.161 1.56175 23.5635 2.34806 24.8465Z" fill="#D80027"/>
<path d="M7.4115 2.99863H8.86956L7.51331 3.98394L8.03137 5.57825L6.67519 4.59294L5.319 5.57825L5.7665 4.20094C4.57237 5.19562 3.52575 6.361 2.66325 7.6595H3.13044L2.26712 8.28669C2.13262 8.51106 2.00362 8.739 1.88 8.97031L2.29225 10.2391L1.52313 9.68031C1.33194 10.0854 1.15706 10.4996 0.999875 10.9224L1.45406 12.3204H3.13044L1.77419 13.3057L2.29225 14.9L0.936063 13.9147L0.123687 14.5049C0.042375 15.1586 0 15.8243 0 16.5H16C16 7.6635 16 6.62175 16 0.5C12.8393 0.5 9.89281 1.41688 7.4115 2.99863ZM8.03137 14.9L6.67519 13.9147L5.319 14.9L5.83706 13.3057L4.48081 12.3204H6.15719L6.67519 10.7261L7.19319 12.3204H8.86956L7.51331 13.3057L8.03137 14.9ZM7.51331 8.64481L8.03137 10.2391L6.67519 9.25381L5.319 10.2391L5.83706 8.64481L4.48081 7.6595H6.15719L6.67519 6.06519L7.19319 7.6595H8.86956L7.51331 8.64481ZM13.7705 14.9L12.4143 13.9147L11.0581 14.9L11.5762 13.3057L10.2199 12.3204H11.8963L12.4143 10.7261L12.9323 12.3204H14.6087L13.2524 13.3057L13.7705 14.9ZM13.2524 8.64481L13.7705 10.2391L12.4143 9.25381L11.0581 10.2391L11.5762 8.64481L10.2199 7.6595H11.8963L12.4143 6.06519L12.9323 7.6595H14.6087L13.2524 8.64481ZM13.2524 3.98394L13.7705 5.57825L12.4143 4.59294L11.0581 5.57825L11.5762 3.98394L10.2199 2.99863H11.8963L12.4143 1.40431L12.9323 2.99863H14.6087L13.2524 3.98394Z" fill="#0052B4"/>
</g>
<defs>
<clipPath id="clip0_2096_1496">
<rect y="0.5" width="32" height="32" rx="16" fill="white"/>
</clipPath>
</defs>
</svg>
