<svg width="32" height="33" viewBox="0 0 32 33" fill="none" xmlns="http://www.w3.org/2000/svg">
<g clip-path="url(#clip0_2096_1514)">
<path d="M16 32.5C24.8366 32.5 32 25.3366 32 16.5C32 7.66344 24.8366 0.5 16 0.5C7.16344 0.5 0 7.66344 0 16.5C0 25.3366 7.16344 32.5 16 32.5Z" fill="#F0F0F0"/>
<path d="M31.9999 16.4999C31.9999 9.62049 27.6579 3.7558 21.5651 1.49512V31.5048C27.6579 29.2441 31.9999 23.3794 31.9999 16.4999Z" fill="#D80027"/>
<path d="M0.000579834 16.501C0.000579834 23.3805 4.34264 29.2452 10.4354 31.5058V1.49622C4.34264 3.7569 0.000579834 9.62159 0.000579834 16.501Z" fill="#0052B4"/>
</g>
<defs>
<clipPath id="clip0_2096_1514">
<rect width="32" height="32" fill="white" transform="translate(0 0.5)"/>
</clipPath>
</defs>
</svg>
